<svg xmlns="http://www.w3.org/2000/svg" viewBox="0 0 1500 520"><defs><pattern id="g" width="32" height="32" patternUnits="userSpaceOnUse"><path d="M32 0H0V32" fill="none" stroke="#292b2d"/></pattern></defs><rect width="1500" height="520" fill="#181a1b"/><rect width="1500" height="520" fill="url(#g)"/><text x="35" y="48" fill="#f3eee4" font-size="28" font-weight="800">Event Graph — mettre à jour Ground Speed et Is Falling</text>
<rect x="45" y="180" width="200" height="80" rx="10" fill="#8d2929"/><text x="145" y="213" text-anchor="middle" fill="#fff" font-size="16" font-weight="800">Event Blueprint</text><text x="145" y="238" text-anchor="middle" fill="#fff" font-size="16" font-weight="800">Update Animation</text>
<rect x="285" y="175" width="180" height="90" rx="10" fill="#18311f" stroke="#55c96b"/><text x="375" y="210" text-anchor="middle" fill="#fff" font-size="16" font-weight="800">Try Get Pawn</text><text x="375" y="235" text-anchor="middle" fill="#aaa" font-size="14">Owner</text>
<rect x="505" y="175" width="170" height="90" rx="10" fill="#18311f" stroke="#55c96b"/><text x="590" y="210" text-anchor="middle" fill="#fff" font-size="17" font-weight="800">Get Velocity</text><text x="590" y="237" text-anchor="middle" fill="#aaa" font-size="14">vecteur</text>
<rect x="715" y="175" width="170" height="90" rx="10" fill="#18311f" stroke="#55c96b"/><text x="800" y="210" text-anchor="middle" fill="#fff" font-size="17" font-weight="800">Vector Length</text><text x="800" y="237" text-anchor="middle" fill="#aaa" font-size="14">Float</text>
<rect x="925" y="175" width="180" height="90" rx="10" fill="#18311f" stroke="#55c96b"/><text x="1015" y="210" text-anchor="middle" fill="#fff" font-size="17" font-weight="800">SET Ground Speed</text>
<rect x="1145" y="150" width="180" height="70" rx="10" fill="#19415a" stroke="#55c9ef"/><text x="1235" y="192" text-anchor="middle" fill="#fff" font-size="16" font-weight="800">Cast To Character</text>
<rect x="1145" y="285" width="180" height="70" rx="10" fill="#19415a" stroke="#55c9ef"/><text x="1235" y="327" text-anchor="middle" fill="#fff" font-size="16" font-weight="800">Character Movement</text>
<rect x="1360" y="285" width="100" height="70" rx="10" fill="#18311f" stroke="#55c96b"/><text x="1410" y="327" text-anchor="middle" fill="#fff" font-size="15" font-weight="800">Is Falling</text>
<rect x="1360" y="150" width="100" height="70" rx="10" fill="#19301d" stroke="#55c96b"/><text x="1410" y="192" text-anchor="middle" fill="#fff" font-size="15" font-weight="800">SET Is Falling</text>
<path d="M245 220H285M465 220H505M675 220H715M885 220H925M1105 220H1145" stroke="#fff" stroke-width="4"/><path d="M1235 220V285" stroke="#5bc9ef" stroke-width="4"/><path d="M1325 320H1360" stroke="#5bc9ef" stroke-width="4"/><path d="M1410 285V220" stroke="#55c96b" stroke-width="4"/><text x="50" y="410" fill="#f3eee4" font-size="20" font-weight="800">Variables :</text><text x="180" y="410" fill="#fff" font-size="18">Ground Speed = Float · Is Falling = Boolean</text><text x="50" y="450" fill="#aaa" font-size="16">Ground Speed pilote le Blend Space 1D. Is Falling pilote les transitions de la State Machine.</text></svg>